<?xml version="1.0" encoding="UTF-8"?> <svg xmlns="http://www.w3.org/2000/svg" width="300" height="72" viewBox="0 0 300 72" fill="none"><g clip-path="url(#clip0)"><path d="M83.4734 24.9152H88.1856V28.059H88.7955C89.9743 26.2067 91.8942 24.3105 95.909 24.3105C101.453 24.3105 105.902 28.9647 105.902 35.5094C105.902 42.0569 101.453 46.7521 95.909 46.7521C91.8942 46.7521 89.9743 44.8587 88.7955 42.9626H88.2731V54.7661H83.4734V24.9152ZM101.103 35.5094C101.103 31.0304 98.354 28.5324 94.6455 28.5324C90.8467 28.5324 88.2731 31.1618 88.2731 35.5094C88.2731 39.8598 90.8467 42.533 94.6455 42.533C98.354 42.533 101.103 39.9912 101.103 35.5094Z" fill="#231F20"></path><path d="M114.717 28.1876H115.33C116.115 25.8619 117.903 24.8276 120.827 24.8276H123.097V29.2656H119.607C116.681 29.2656 114.849 30.858 114.849 33.9607V46.1501H110.049V24.9152H114.717V28.1876Z" fill="#231F20"></path><path d="M128.812 15.1362C130.82 15.1362 132.392 16.559 132.392 18.581C132.392 20.5647 130.82 22.0285 128.812 22.0285C126.805 22.0285 125.191 20.5647 125.191 18.581C125.191 16.559 126.805 15.1362 128.812 15.1362ZM131.214 46.15H126.414V24.9151H131.214V46.15Z" fill="#231F20"></path><path d="M141.423 24.9134V27.8848H142.036C143.04 25.9476 144.916 24.5686 147.839 24.5686C150.763 24.5686 152.683 26.0762 153.687 28.142H154.299C155.215 26.2486 157.004 24.5686 160.45 24.5686C164.334 24.5686 167.651 27.3676 167.651 31.7618V46.1482H162.851V32.1066C162.851 29.9095 161.191 28.6591 158.88 28.6591C156.435 28.6591 154.603 30.1256 154.603 33.0533V46.1482H149.803V32.1066C149.803 29.9095 148.233 28.6591 145.92 28.6591C143.431 28.6591 141.511 30.1256 141.511 33.0533V46.1482H136.711V24.9134H141.423Z" fill="#231F20"></path><path d="M182.663 24.3105C188.51 24.3105 192.262 27.6294 192.262 32.6666V46.1501H187.55V42.9625H186.94C186.155 44.6425 184.277 46.752 179.783 46.752C174.94 46.752 171.753 44.1692 171.753 40.2073C171.753 36.5874 174.59 34.3903 179.433 33.917L187.506 33.0989V32.538C187.506 30.0837 185.718 28.4475 182.488 28.4475C179.304 28.4475 177.382 29.9962 176.206 32.3656L172.191 30.1275C174.242 26.8962 177.426 24.3105 182.663 24.3105ZM180.787 42.834C185.237 42.834 187.506 40.2073 187.506 36.9322V36.5874L180.481 37.3207C178.211 37.5341 176.728 38.2674 176.728 39.9911C176.728 41.7149 178.17 42.834 180.787 42.834Z" fill="#231F20"></path><path d="M202.299 46.1512H197.5V15.9993H202.299V46.1512Z" fill="#231F20"></path><path d="M217.618 24.3105C223.944 24.3105 228.79 28.8771 228.79 35.5094C228.79 42.1445 223.944 46.752 217.618 46.752C211.29 46.752 206.446 42.1445 206.446 35.5094C206.446 28.8771 211.29 24.3105 217.618 24.3105ZM217.618 42.4892C221.414 42.4892 223.988 39.775 223.988 35.5094C223.988 31.2466 221.414 28.5761 217.618 28.5761C213.822 28.5761 211.246 31.2466 211.246 35.5094C211.246 39.775 213.822 42.4892 217.618 42.4892Z" fill="#231F20"></path><path d="M254.011 24.9152V45.4606C254.011 51.2338 249.822 55.3681 243.189 55.3681C237.342 55.3681 234.025 52.6539 231.886 49.4252L236.032 46.9682C237.211 49.2091 239.393 51.2338 242.883 51.2338C246.551 51.2338 249.212 49.3377 249.212 45.2472V42.3606H248.687C247.552 44.254 245.591 46.1501 241.576 46.1501C236.076 46.1501 231.583 41.6273 231.583 35.2085C231.583 28.8333 236.076 24.3105 241.576 24.3105C245.591 24.3105 247.552 26.2067 248.687 28.059H249.299V24.9152H254.011ZM249.212 35.2085C249.212 31.0304 246.635 28.5324 242.839 28.5324C239.131 28.5324 236.382 30.9018 236.382 35.2085C236.382 39.5589 239.131 41.9283 242.839 41.9283C246.635 41.9283 249.212 39.4303 249.212 35.2085Z" fill="#231F20"></path><path d="M261.909 15.1362C263.917 15.1362 265.489 16.559 265.489 18.581C265.489 20.5647 263.917 22.0285 261.909 22.0285C259.902 22.0285 258.288 20.5647 258.288 18.581C258.288 16.559 259.902 15.1362 261.909 15.1362ZM264.311 46.15H259.511V24.9151H264.311V46.15Z" fill="#231F20"></path><path d="M281.94 33.0124L291.452 46.1512H285.823L278.491 35.8552L274.608 39.0428V46.1512H269.808V15.9993H274.608V33.0124H275.133L284.863 24.9163H291.714L281.94 33.0124Z" fill="#231F20"></path><ellipse cx="39.4489" cy="35.7503" rx="28.1428" ry="28.1552" fill="white"></ellipse><path fill-rule="evenodd" clip-rule="evenodd" d="M60.7704 14.4196C72.5459 26.2003 72.5459 45.3005 60.7704 57.0812C48.9949 68.8619 29.903 68.8619 18.1275 57.0812C6.35202 45.3005 6.35202 26.2003 18.1275 14.4196C29.903 2.63894 48.9949 2.63894 60.7704 14.4196ZM17.2005 35.7504L39.4489 13.4922L46.4016 20.4479L31.1058 35.7504L46.4016 51.0529L39.4489 58.0086L17.2005 35.7504ZM53.8178 43.6335L61.6974 35.7504L53.8177 27.8673L45.9381 35.7504L53.8178 43.6335Z" fill="#F15A24"></path></g><defs><clipPath id="clip0"><rect width="300" height="71.4599" fill="white"></rect></clipPath></defs></svg> 